<?xml version="1.0" encoding="UTF-8"?>
<!-- Generator: visioncortex VTracer 0.6.3 -->
<svg version="1.1" xmlns="http://www.w3.org/2000/svg" width="1280" height="515">
<path d="M0 0 C1.3 0 2.6 0 3.94 0 C5.37 0.01 6.79 0.01 8.22 0.02 C9.67 0.02 11.13 0.02 12.58 0.02 C16.41 0.02 20.24 0.03 24.08 0.04 C27.98 0.06 31.89 0.06 35.8 0.06 C43.47 0.08 51.14 0.09 58.81 0.11 C61.07 4.44 63.17 8.58 64.4 13.32 C64.77 14.7 64.77 14.7 65.14 16.1 C65.38 17.03 65.62 17.97 65.87 18.93 C66.11 19.85 66.35 20.77 66.6 21.72 C67.09 23.57 67.58 25.43 68.07 27.29 C68.83 30.21 69.61 33.13 70.4 36.04 C70.64 36.91 70.87 37.78 71.11 38.68 C71.76 40.95 72.48 43.19 73.24 45.43 C77.04 56.64 79.74 67.98 82.14 79.56 C82.35 80.52 82.55 81.48 82.76 82.48 C82.93 83.35 83.11 84.22 83.3 85.11 C83.62 87.1 83.62 87.1 84.81 88.11 C84.96 87.4 85.11 86.69 85.26 85.95 C88.48 70.78 92.07 55.89 96.81 41.11 C97.33 39.46 97.85 37.81 98.38 36.15 C99.15 33.72 99.91 31.29 100.69 28.86 C102.22 24.05 103.64 19.23 104.99 14.36 C108.29 2.63 108.29 2.63 110.81 0.11 C112.82 0.01 114.84 -0.01 116.85 -0.02 C118.15 -0.02 119.44 -0.02 120.78 -0.03 C122.2 -0.02 123.63 -0.02 125.05 -0.02 C126.5 -0.02 127.95 -0.02 129.41 -0.02 C132.45 -0.02 135.5 -0.02 138.54 -0.02 C142.45 -0.01 146.36 -0.01 150.27 -0.02 C153.27 -0.02 156.27 -0.02 159.26 -0.02 C160.7 -0.02 162.15 -0.02 163.59 -0.02 C165.6 -0.03 167.61 -0.02 169.63 -0.02 C171.35 -0.01 171.35 -0.01 173.1 -0.01 C175.81 0.11 175.81 0.11 177.81 1.11 C178.4 3.27 178.4 3.27 178.88 6.18 C179.07 7.29 179.26 8.39 179.46 9.53 C179.65 10.75 179.85 11.98 180.06 13.24 C180.27 14.51 180.48 15.78 180.7 17.09 C183.94 36.58 186.87 56.12 189.78 75.66 C189.99 77.02 189.99 77.02 190.19 78.41 C190.42 79.95 190.65 81.48 190.87 83.02 C191.56 87.73 192.4 92.41 193.26 97.09 C194.28 102.75 195.23 108.43 196.18 114.11 C196.4 115.41 196.62 116.72 196.84 118.06 C198.49 127.98 199.98 137.91 201.42 147.86 C202.5 155.28 203.77 162.63 205.29 169.98 C205.81 173.11 205.81 173.11 205.81 179.11 C184.36 179.11 162.91 179.11 140.81 179.11 C139.82 170.2 138.83 161.29 137.81 152.11 C137.05 146.38 137.05 146.38 136.27 140.64 C133.95 122.87 132.52 104.96 130.81 87.11 C130.39 88.88 130.39 88.88 129.96 90.68 C127.45 101.04 124.63 111.26 121.47 121.44 C119.15 128.94 116.96 136.47 114.85 144.03 C114.62 144.83 114.4 145.63 114.17 146.45 C113.97 147.14 113.78 147.82 113.59 148.53 C112.41 152.42 111.09 156.26 109.81 160.11 C107.83 166.38 105.85 172.65 103.81 179.11 C90.61 179.11 77.41 179.11 63.81 179.11 C60.43 170.11 60.43 170.11 59.23 166.14 C58.96 165.26 58.69 164.37 58.41 163.45 C57.99 162.05 57.99 162.05 57.56 160.61 C57.26 159.62 56.96 158.63 56.65 157.61 C54.42 150.21 52.23 142.79 50.06 135.36 C49.63 133.92 49.63 133.92 49.2 132.45 C47.57 126.83 46 121.19 44.49 115.54 C43.85 113.28 43.14 111.08 42.37 108.86 C40.14 102.39 38.52 95.73 36.81 89.11 C35.35 97.17 34.48 105.21 33.81 113.36 C32.7 126.7 31.12 139.93 29.31 153.19 C28.63 158.49 28.05 163.81 27.5 169.12 C27.14 172.56 26.65 175.75 25.81 179.11 C4.69 179.11 -16.43 179.11 -38.19 179.11 C-37.59 171.21 -36.99 164.05 -35.38 156.43 C-33.5 147.05 -31.98 137.64 -30.59 128.17 C-29.9 123.57 -29.2 118.99 -28.26 114.43 C-26.87 107.71 -25.81 100.94 -24.71 94.18 C-22.95 83.42 -21.18 72.68 -19.07 61.99 C-17.31 53.09 -15.91 44.14 -14.59 35.17 C-13.75 29.55 -12.82 23.98 -11.67 18.42 C-11.22 16.24 -10.81 14.07 -10.41 11.89 C-10.18 10.62 -9.94 9.36 -9.69 8.05 C-9.46 6.76 -9.22 5.47 -8.98 4.14 C-8.72 3.14 -8.46 2.14 -8.19 1.11 C-5.4 -0.28 -3.12 -0.01 0 0 Z " fill="#201D1F" transform="translate(750.19384765625,161.886474609375)"/>
<path d="M0 0 C0 0.66 0 1.32 0 2 C0.62 2.31 1.24 2.62 1.88 2.94 C3.25 3.62 4.62 4.31 6 5 C6 5.66 6 6.32 6 7 C6.99 7.33 7.98 7.66 9 8 C9 8.66 9 9.32 9 10 C9.66 10 10.32 10 11 10 C21.5 21.32 29.42 34.92 33 50 C33.34 51.21 33.68 52.43 34.03 53.68 C35.18 58.31 35.49 62.87 35.69 67.62 C35.73 68.5 35.76 69.38 35.8 70.28 C36.73 95.39 29.89 116.56 14.48 136.45 C13.99 136.96 13.5 137.47 13 138 C12.34 138 11.68 138 11 138 C11 138.66 11 139.32 11 140 C10.34 140 9.68 140 9 140 C8.67 140.99 8.34 141.98 8 143 C7.34 143 6.68 143 6 143 C6 143.66 6 144.32 6 145 C-2.24 152.52 -11.94 157.41 -22 162 C-22.91 162.42 -23.81 162.85 -24.75 163.28 C-36.29 168.29 -48.41 169.54 -60.88 169.44 C-62.85 169.43 -62.85 169.43 -64.86 169.42 C-74.53 169.26 -82.89 168.28 -92 165 C-93.14 164.61 -94.28 164.23 -95.45 163.83 C-106.46 159.88 -116.06 154.53 -125 147 C-125.75 146.38 -126.5 145.77 -127.28 145.13 C-146.29 128.98 -155.74 106.44 -158 82 C-159.76 60.25 -153.37 39.3 -142 21 C-141.34 21 -140.68 21 -140 21 C-139.81 20.34 -139.63 19.68 -139.44 19 C-133.3 6.2 -118.28 -2.94 -106 -9 C-105.36 -9.36 -104.73 -9.73 -104.07 -10.11 C-97.53 -13.77 -90.24 -15.31 -83 -17 C-82.03 -17.23 -81.06 -17.46 -80.07 -17.7 C-51.66 -23.42 -23.71 -15.81 0 0 Z M-83.5 51.67 C-89.01 58.85 -90.51 66.1 -90.44 74.94 C-90.46 75.78 -90.48 76.62 -90.5 77.49 C-90.49 86.88 -86.6 95.32 -80 102 C-72.16 107.67 -64.26 108.78 -54.77 107.76 C-46.84 106.41 -41.46 102.33 -36.69 95.94 C-30.6 86.04 -30.28 75.44 -32.54 64.38 C-34.62 56.18 -38.96 49.63 -46.09 44.96 C-58.66 38.63 -74.19 41.34 -83.5 51.67 Z " fill="#201D1F" transform="translate(479,177)"/>
<path d="M0 0 C1.62 0.58 3.25 1.17 4.88 1.75 C11.16 4.25 16.5 8.12 22 12 C22.76 12.51 23.53 13.03 24.32 13.56 C25.92 14.65 27.47 15.82 29 17 C29 17.66 29 18.32 29 19 C29.99 19.33 30.98 19.66 32 20 C32 20.66 32 21.32 32 22 C32.66 22 33.32 22 34 22 C41.79 31.11 48.55 40.83 53 52 C53.25 52.64 53.51 53.27 53.77 53.93 C61.35 73.95 61.43 102.25 53 122 C52.71 122.69 52.42 123.39 52.12 124.1 C48.02 133.64 42.87 141.21 36 149 C35.34 149.99 34.68 150.98 34 152 C33.34 152 32.68 152 32 152 C31.67 152.99 31.34 153.98 31 155 C30.34 155 29.68 155 29 155 C29 155.66 29 156.32 29 157 C25.54 160 25.54 160 23 160 C23 160.66 23 161.32 23 162 C13.39 170.6 -1.56 176.36 -14 179 C-14.59 179.16 -15.19 179.33 -15.8 179.5 C-23.01 181.38 -30.15 181.38 -37.56 181.38 C-38.23 181.37 -38.9 181.37 -39.58 181.37 C-49.97 181.34 -59.18 180.53 -69 177 C-70.1 176.64 -71.21 176.28 -72.35 175.9 C-97.4 167.09 -116.17 149.43 -127.69 125.62 C-137.93 102.25 -137.65 74.04 -128.51 50.38 C-122.54 37.01 -114.56 25.14 -103 16 C-102.08 15.27 -101.16 14.54 -100.21 13.78 C-72.7 -7.52 -32.42 -14.95 0 0 Z M-59 62 C-67.36 72.36 -68.02 82.61 -67.29 95.49 C-66.45 102.8 -62.83 108.65 -57.5 113.56 C-49.5 119.54 -41.59 120.7 -31.8 119.8 C-24.01 118.55 -18.63 114.11 -13.62 108.19 C-7.47 96.11 -7.1 84.84 -11 72 C-13.88 64.98 -18.3 59.62 -25 56 C-36.76 51.9 -49.94 53.01 -59 62 Z " fill="#201D1F" transform="translate(656,165)"/>
<path d="M0 0 C1.09 0 1.09 0 2.19 0.01 C3.33 0 3.33 0 4.5 0 C7.03 -0 9.56 -0 12.09 0 C13.86 0 15.63 0 17.4 -0 C21.13 -0 24.86 0 28.58 0.01 C33.31 0.01 38.03 0.01 42.75 0 C46.42 -0 50.09 -0 53.76 0 C55.49 0 57.23 0 58.97 -0 C68.03 -0.01 77.08 0.11 86.14 0.53 C87.28 0.58 87.28 0.58 88.44 0.63 C106.96 1.62 123.99 8.39 136.76 22.01 C148.23 35.73 150.15 52.94 148.95 70.14 C147.3 81.06 142.2 91.69 133.95 99.14 C128.29 103.21 122.47 105.78 115.95 108.14 C116.52 108.99 117.09 109.84 117.68 110.71 C122.53 117.96 127.33 125.25 132.07 132.57 C138.4 142.34 144.85 152.03 151.32 161.71 C151.93 162.62 152.53 163.54 153.16 164.48 C154.34 166.24 155.54 167.99 156.75 169.74 C157.3 170.53 157.85 171.33 158.42 172.16 C158.91 172.85 159.4 173.55 159.9 174.27 C160.95 176.14 160.95 176.14 160.95 179.14 C136.86 179.14 112.77 179.14 87.95 179.14 C85.31 174.19 82.67 169.24 79.95 164.14 C78.44 161.44 76.92 158.75 75.38 156.07 C71.88 149.92 68.65 143.68 65.55 137.32 C64.37 134.97 63.15 132.71 61.85 130.44 C61.22 129.35 60.59 128.26 59.95 127.14 C59.94 127.77 59.93 128.41 59.92 129.06 C59.81 135.67 59.69 142.27 59.57 148.87 C59.53 151.34 59.49 153.8 59.45 156.27 C59.39 159.81 59.33 163.34 59.26 166.88 C59.25 167.99 59.23 169.1 59.21 170.25 C59.19 171.27 59.17 172.29 59.15 173.34 C59.14 174.24 59.12 175.15 59.1 176.08 C58.95 178.14 58.95 178.14 57.95 179.14 C55.95 179.23 53.95 179.25 51.96 179.25 C50.68 179.25 49.4 179.25 48.08 179.25 C46.67 179.24 45.26 179.24 43.85 179.23 C42.42 179.23 40.98 179.23 39.55 179.23 C35.77 179.23 31.99 179.22 28.21 179.2 C24.36 179.19 20.5 179.19 16.65 179.18 C9.08 179.17 1.51 179.16 -6.05 179.14 C-6.08 155.94 -6.09 132.75 -6.11 109.56 C-6.11 98.8 -6.12 88.03 -6.13 77.26 C-6.14 67.88 -6.15 58.5 -6.15 49.12 C-6.15 44.15 -6.15 39.18 -6.16 34.21 C-6.17 29.53 -6.17 24.86 -6.17 20.19 C-6.17 18.47 -6.17 16.75 -6.17 15.03 C-6.18 12.69 -6.18 10.35 -6.17 8.01 C-6.17 6.7 -6.18 5.39 -6.18 4.04 C-5.97 -0.77 -4.35 0.02 0 0 Z M58.95 48.14 C58.95 59.03 58.95 69.92 58.95 81.14 C71.42 82.05 71.42 82.05 81.43 76.71 C85.5 72.1 86.26 68.39 86.15 62.48 C85.69 57.25 83.76 54.05 80.32 50.2 C74.42 46.26 65.54 47.88 58.95 48.14 Z " fill="#201D1F" transform="translate(167.05372619628906,161.86447143554688)"/>
<path d="M0 0 C-1.15 6.81 -3.44 12.39 -6.42 18.61 C-7.95 21.89 -9.28 25.18 -10.56 28.56 C-10.96 29.62 -11.36 30.68 -11.78 31.77 C-12.38 33.37 -12.38 33.37 -13 35 C-13.86 37.26 -14.74 39.51 -15.62 41.75 C-16.01 42.73 -16.39 43.72 -16.79 44.73 C-18 47 -18 47 -21 48 C-23.06 46.96 -23.06 46.96 -25.44 45.38 C-36.31 38.56 -49.99 32.55 -63.09 35.46 C-65.27 36.14 -65.27 36.14 -68 38 C-69.06 41.08 -69.06 41.08 -69 44 C-61.88 50.65 -52.4 52.56 -43.12 54.44 C-30.43 57.2 -19.44 60.54 -10 70 C-10 70.66 -10 71.32 -10 72 C-9.34 72 -8.68 72 -8 72 C2.38 84.98 4.51 98.9 3 115 C0.5 132.44 -9 147.03 -22.93 157.52 C-31.23 163.5 -40.1 167.51 -50 170 C-50.7 170.18 -51.41 170.36 -52.13 170.55 C-59.76 172.3 -67.33 172.36 -75.12 172.31 C-75.81 172.31 -76.5 172.31 -77.21 172.31 C-87.46 172.26 -97.08 171.78 -107 169 C-107.97 168.74 -107.97 168.74 -108.95 168.48 C-122.13 164.93 -134.65 159.64 -146 152 C-145.31 146.93 -143.21 142.52 -141.19 137.88 C-138.95 132.67 -136.74 127.48 -134.88 122.12 C-132.45 115.2 -129.28 108.56 -126 102 C-121.52 102.56 -118.63 104.3 -114.88 106.75 C-103.34 114.06 -88.89 121.47 -74.8 118.54 C-72.86 118.07 -70.93 117.54 -69 117 C-69 116.34 -69 115.68 -69 115 C-68.34 115 -67.68 115 -67 115 C-67.03 111.64 -67.03 111.64 -68 108 C-72.46 104.31 -76.67 103.06 -82.19 101.94 C-83.71 101.6 -85.23 101.26 -86.76 100.92 C-89.17 100.39 -91.58 99.88 -93.99 99.36 C-102.62 97.31 -110.21 93.12 -118 89 C-118 88.34 -118 87.68 -118 87 C-118.87 86.63 -118.87 86.63 -119.75 86.26 C-128.51 81.36 -133.3 71.25 -136 62 C-138.47 43.46 -135.62 26.12 -124.3 10.92 C-119.85 5.27 -115.24 0.63 -109 -3 C-108.34 -3 -107.68 -3 -107 -3 C-107 -3.66 -107 -4.32 -107 -5 C-99.14 -8.86 -91.57 -12.14 -83 -14 C-81.69 -14.31 -81.69 -14.31 -80.35 -14.62 C-52.59 -20.26 -24.59 -12.78 0 0 Z " fill="#201D1F" transform="translate(1105,174)"/>
<path d="M0 0 C3.6 1.91 5.75 4.62 8 8 C8.66 12.04 8.92 16.2 7.02 19.92 C4.78 22.71 2.45 25.01 -1 26 C-6.55 26.45 -10.3 26.31 -15 23 C-17.6 19.8 -18.88 16.97 -19.38 12.88 C-18.99 9.95 -18.25 7.66 -17 5 C-16.34 5 -15.68 5 -15 5 C-14.67 4.01 -14.34 3.02 -14 2 C-9.71 -0.83 -4.95 -0.78 0 0 Z M-13 5 C-15.36 8.47 -16.01 10.41 -15.94 14.62 C-14.92 18.29 -13.95 19.67 -11 22 C-7.94 23.53 -5.38 23.23 -2 23 C0.82 21.75 2.46 20.72 4.31 18.25 C5.31 14.98 5.36 12.4 5 9 C2.87 5.58 0.86 3.29 -3 2 C-7.24 1.46 -9.66 2.36 -13 5 Z " fill="#0E0C0E" transform="translate(1135,150)"/>
<path d="M0 0 C0.33 0 0.66 0 1 0 C1.86 9.68 1.86 9.68 -1.25 13.5 C-5.57 17.42 -7.98 18.39 -13.96 18.27 C-17.02 17.87 -19.38 16.57 -22 15 C-21.67 13.68 -21.34 12.36 -21 11 C-20.67 11.66 -20.34 12.32 -20 13 C-16.42 14.38 -12.78 14.27 -9 14 C-5.46 12.35 -4.19 11.28 -2 8 C-1.67 8 -1.34 8 -1 8 C-1.03 6.3 -1.03 6.3 -1.06 4.56 C-1 1 -1 1 0 0 Z " fill="#09080A" transform="translate(1142,158)"/>
<path d="M0 0 C1.98 0 3.96 0 6 0 C8 2 8 2 8.06 5.88 C8.04 6.58 8.02 7.29 8 8.02 C8 10.16 8.33 11.98 9 14 C8.01 14 7.02 14 6 14 C5.71 13.36 5.42 12.72 5.12 12.06 C4.17 9.85 4.17 9.85 2 9 C2 10.65 2 12.3 2 14 C1.34 14 0.68 14 0 14 C0 9.38 0 4.76 0 0 Z M2 3 C2 3.66 2 4.32 2 5 C2.99 5 3.98 5 5 5 C5 4.34 5 3.68 5 3 C4.01 3 3.02 3 2 3 Z " fill="#0E0D0F" transform="translate(1126,156)"/>
<path d="M0 0 C3.62 0.04 5.97 0.29 8.88 2.5 C12.59 6.89 12.48 10.82 12.31 16.38 C11.65 16.7 10.99 17.03 10.31 17.38 C10.24 16.7 10.16 16.02 10.09 15.33 C9.23 9.37 9.23 9.37 5.56 4.75 C2.15 3.31 -0.03 3.21 -3.69 3.38 C-4.35 2.72 -5.01 2.06 -5.69 1.38 C-4.06 -0.26 -2.25 0.09 0 0 Z " fill="#0E0D0F" transform="translate(1129.6875,149.625)"/>
<path d="M0 0 C1.98 0 3.96 0 6 0 C5.01 1.49 5.01 1.49 4 3 C3.34 3 2.68 3 2 3 C2.19 3.89 2.37 4.77 2.56 5.69 C2.98 8.85 2.81 10.95 2 14 C1.34 14 0.68 14 0 14 C0 9.38 0 4.76 0 0 Z " fill="#0D0C0E" transform="translate(1126,156)"/>
<path d="M0 0 C0.66 0.33 1.32 0.66 2 1 C-1.63 4.63 -5.26 8.26 -9 12 C-9.33 11.01 -9.66 10.02 -10 9 C-8.71 7.68 -7.42 6.37 -6.12 5.06 C-5.05 3.97 -5.05 3.97 -3.95 2.85 C-2 1 -2 1 0 0 Z " fill="#0B0A0C" transform="translate(992,174)"/>
<path d="M0 0 C0.99 0.33 1.98 0.66 3 1 C3 1.66 3 2.32 3 3 C2.01 3.33 1.02 3.66 0 4 C-1.71 7 -1.71 7 -3 10 C-5 6.25 -5 6.25 -5 4 C-4.34 4 -3.68 4 -3 4 C-2.67 3.01 -2.34 2.02 -2 1 C-1.34 0.67 -0.68 0.34 0 0 Z " fill="#070608" transform="translate(1123,151)"/>
</svg>
